<svg xmlns="http://www.w3.org/2000/svg" width="25" height="25" viewBox="0 0 25 25">
  <defs>
    <style>
      .cls-1 {
        fill: #fff;
      }
    </style>
  </defs>
  <path id="Icon_awesome-user-ninja" data-name="Icon awesome-user-ninja" class="cls-1" d="M18.158,14.121,12.5,19.072,6.842,14.121C3.013,14.419,0,17.2,0,20.625v2.031A2.529,2.529,0,0,0,2.679,25H22.321A2.529,2.529,0,0,0,25,22.656V20.625C25,17.2,21.987,14.419,18.158,14.121ZM1.786,9.375a5.712,5.712,0,0,0,3.862-1.45A7.038,7.038,0,0,0,12.5,12.5c3.945,0,7.143-2.8,7.143-6.25S16.445,0,12.5,0A7.268,7.268,0,0,0,6.11,3.506,5.6,5.6,0,0,0,1.786,1.563,4.559,4.559,0,0,0,4.191,5.469,4.559,4.559,0,0,0,1.786,9.375ZM9.821,4.688h5.357A1.684,1.684,0,0,1,16.964,6.25H8.036A1.684,1.684,0,0,1,9.821,4.688Z"/>
</svg>
